<?xml version="1.0" encoding="UTF-8" standalone="no"?>
<!DOCTYPE svg PUBLIC "-//W3C//DTD SVG 1.1//EN"
 "http://www.w3.org/Graphics/SVG/1.1/DTD/svg11.dtd">
<!-- Generated by graphviz version 2.43.0 (0)
 -->
<!-- Title: User functions Pages: 1 -->
<svg width="269pt" height="113pt"
 viewBox="0.00 0.00 269.00 112.50" xmlns="http://www.w3.org/2000/svg" xmlns:xlink="http://www.w3.org/1999/xlink">
<g id="graph0" class="graph" transform="scale(1 1) rotate(0) translate(4 108.5)">
<title>User functions</title>
<polygon fill="white" stroke="transparent" points="-4,4 -4,-108.5 265,-108.5 265,4 -4,4"/>
<!-- Node3 -->
<g id="node1" class="node">
<title>Node3</title>
<g id="a_node1"><a xlink:href="a00016.html" target="_top" xlink:title=" ">
<polygon fill="white" stroke="black" points="252,-104.5 134,-104.5 134,-85.5 252,-85.5 252,-104.5"/>
<text text-anchor="middle" x="193" y="-92.5" font-family="Helvetica,sans-Serif" font-size="10.00">Allocation functions.</text>
</a>
</g>
</g>
<!-- Node2 -->
<g id="node2" class="node">
<title>Node2</title>
<g id="a_node2"><a xlink:href="a00015.html" target="_top" xlink:title=" ">
<polygon fill="white" stroke="black" points="261,-67.5 125,-67.5 125,-48.5 261,-48.5 261,-67.5"/>
<text text-anchor="middle" x="193" y="-55.5" font-family="Helvetica,sans-Serif" font-size="10.00">Configuration functions.</text>
</a>
</g>
</g>
<!-- Node1 -->
<g id="node3" class="node">
<title>Node1</title>
<g id="a_node3"><a xlink:title=" ">
<polygon fill="#bfbfbf" stroke="black" points="89,-67.5 0,-67.5 0,-48.5 89,-48.5 89,-67.5"/>
<text text-anchor="middle" x="44.5" y="-55.5" font-family="Helvetica,sans-Serif" font-size="10.00">User functions</text>
</a>
</g>
</g>
<!-- Node1&#45;&gt;Node3 -->
<g id="edge2" class="edge">
<title>Node1&#45;&gt;Node3</title>
<path fill="none" stroke="black" d="M92.99,-69.99C112.8,-75 135.49,-80.73 154.15,-85.44"/>
<polygon fill="black" stroke="black" points="93.78,-66.58 83.23,-67.53 92.07,-73.37 93.78,-66.58"/>
</g>
<!-- Node1&#45;&gt;Node2 -->
<g id="edge1" class="edge">
<title>Node1&#45;&gt;Node2</title>
<path fill="none" stroke="black" d="M99.31,-58C107.58,-58 116.21,-58 124.73,-58"/>
<polygon fill="black" stroke="black" points="99.06,-54.5 89.06,-58 99.06,-61.5 99.06,-54.5"/>
</g>
<!-- Node4 -->
<g id="node4" class="node">
<title>Node4</title>
<g id="a_node4"><a xlink:href="a00017.html" target="_top" xlink:title=" ">
<polygon fill="white" stroke="black" points="248,-30 138,-30 138,0 248,0 248,-30"/>
<text text-anchor="start" x="146" y="-18" font-family="Helvetica,sans-Serif" font-size="10.00">Initialization and</text>
<text text-anchor="middle" x="193" y="-7" font-family="Helvetica,sans-Serif" font-size="10.00"> destroy functions.</text>
</a>
</g>
</g>
<!-- Node1&#45;&gt;Node4 -->
<g id="edge3" class="edge">
<title>Node1&#45;&gt;Node4</title>
<path fill="none" stroke="black" d="M87.94,-45.54C104.48,-40.69 123.59,-35.08 140.87,-30.01"/>
<polygon fill="black" stroke="black" points="86.62,-42.28 78.01,-48.46 88.59,-49 86.62,-42.28"/>
</g>
</g>
</svg>
