<?xml version="1.0" encoding="UTF-8" standalone="no"?>
<!DOCTYPE svg PUBLIC "-//W3C//DTD SVG 1.1//EN"
 "http://www.w3.org/Graphics/SVG/1.1/DTD/svg11.dtd">
<!-- Generated by graphviz version 2.43.0 (0)
 -->
<!-- Title: User functions Pages: 1 -->
<svg width="291pt" height="113pt"
 viewBox="0.00 0.00 291.00 113.00" xmlns="http://www.w3.org/2000/svg" xmlns:xlink="http://www.w3.org/1999/xlink">
<g id="graph0" class="graph" transform="scale(1 1) rotate(0) translate(4 109)">
<title>User functions</title>
<polygon fill="white" stroke="transparent" points="-4,4 -4,-109 287,-109 287,4 -4,4"/>
<!-- Node3 -->
<g id="node1" class="node">
<title>Node3</title>
<g id="a_node1"><a xlink:href="a00019.html" target="_top" xlink:title="Functions that allocates memory from the arena to your program.">
<polygon fill="white" stroke="black" points="263,-105 145,-105 145,-86 263,-86 263,-105"/>
<text text-anchor="middle" x="204" y="-93" font-family="Helvetica,sans-Serif" font-size="10.00">Allocation functions.</text>
</a>
</g>
</g>
<!-- Node4 -->
<g id="node2" class="node">
<title>Node4</title>
<g id="a_node2"><a xlink:href="a00020.html" target="_top" xlink:title="Functions that configures an individual arena, and frees memory back when done.">
<polygon fill="white" stroke="black" points="283,-67.5 125,-67.5 125,-37.5 283,-37.5 283,-67.5"/>
<text text-anchor="start" x="133" y="-55.5" font-family="Helvetica,sans-Serif" font-size="10.00">Indiviual Arena initialization</text>
<text text-anchor="middle" x="204" y="-44.5" font-family="Helvetica,sans-Serif" font-size="10.00"> and destruction functions.</text>
</a>
</g>
</g>
<!-- Node2 -->
<g id="node3" class="node">
<title>Node2</title>
<g id="a_node3"><a xlink:href="a00018.html" target="_top" xlink:title="Functions for setting up and tearing down the arenas.">
<polygon fill="white" stroke="black" points="272,-19 136,-19 136,0 272,0 272,-19"/>
<text text-anchor="middle" x="204" y="-7" font-family="Helvetica,sans-Serif" font-size="10.00">Configuration functions.</text>
</a>
</g>
</g>
<!-- Node1 -->
<g id="node4" class="node">
<title>Node1</title>
<g id="a_node4"><a xlink:title="The different functions to be used from a user program.">
<polygon fill="#bfbfbf" stroke="black" points="89,-62 0,-62 0,-43 89,-43 89,-62"/>
<text text-anchor="middle" x="44.5" y="-50" font-family="Helvetica,sans-Serif" font-size="10.00">User functions</text>
</a>
</g>
</g>
<!-- Node1&#45;&gt;Node3 -->
<g id="edge2" class="edge">
<title>Node1&#45;&gt;Node3</title>
<path fill="none" stroke="black" d="M85.37,-65C98,-68.83 112.05,-72.97 125,-76.5 136.97,-79.76 150.04,-83.05 162.01,-85.96"/>
<polygon fill="black" stroke="black" points="86.18,-61.58 75.59,-62 84.13,-68.28 86.18,-61.58"/>
</g>
<!-- Node1&#45;&gt;Node4 -->
<g id="edge3" class="edge">
<title>Node1&#45;&gt;Node4</title>
<path fill="none" stroke="black" d="M99.54,-52.5C107.76,-52.5 116.38,-52.5 124.98,-52.5"/>
<polygon fill="black" stroke="black" points="99.37,-49 89.37,-52.5 99.37,-56 99.37,-49"/>
</g>
<!-- Node1&#45;&gt;Node2 -->
<g id="edge1" class="edge">
<title>Node1&#45;&gt;Node2</title>
<path fill="none" stroke="black" d="M85.37,-40C98,-36.17 112.05,-32.03 125,-28.5 136.97,-25.24 150.04,-21.95 162.01,-19.04"/>
<polygon fill="black" stroke="black" points="84.13,-36.72 75.59,-43 86.18,-43.42 84.13,-36.72"/>
</g>
</g>
</svg>
