<?xml version="1.0" encoding="UTF-8" standalone="no"?>
<!DOCTYPE svg PUBLIC "-//W3C//DTD SVG 1.1//EN"
 "http://www.w3.org/Graphics/SVG/1.1/DTD/svg11.dtd">
<!-- Generated by graphviz version 2.43.0 (0)
 -->
<!-- Title: User functions Pages: 1 -->
<svg width="251pt" height="76pt"
 viewBox="0.00 0.00 251.00 75.50" xmlns="http://www.w3.org/2000/svg" xmlns:xlink="http://www.w3.org/1999/xlink">
<g id="graph0" class="graph" transform="scale(1 1) rotate(0) translate(4 71.5)">
<title>User functions</title>
<polygon fill="white" stroke="transparent" points="-4,4 -4,-71.5 247,-71.5 247,4 -4,4"/>
<!-- Node2 -->
<g id="node1" class="node">
<title>Node2</title>
<g id="a_node1"><a xlink:href="a00015.html" target="_top" xlink:title=" ">
<polygon fill="white" stroke="black" points="243,-67.5 125,-67.5 125,-48.5 243,-48.5 243,-67.5"/>
<text text-anchor="middle" x="184" y="-55.5" font-family="Helvetica,sans-Serif" font-size="10.00">Allocation functions.</text>
</a>
</g>
</g>
<!-- Node1 -->
<g id="node2" class="node">
<title>Node1</title>
<g id="a_node2"><a xlink:title=" ">
<polygon fill="#bfbfbf" stroke="black" points="89,-45.5 0,-45.5 0,-26.5 89,-26.5 89,-45.5"/>
<text text-anchor="middle" x="44.5" y="-33.5" font-family="Helvetica,sans-Serif" font-size="10.00">User functions</text>
</a>
</g>
</g>
<!-- Node1&#45;&gt;Node2 -->
<g id="edge1" class="edge">
<title>Node1&#45;&gt;Node2</title>
<path fill="none" stroke="black" d="M99.06,-44.57C107.46,-45.91 116.18,-47.31 124.69,-48.67"/>
<polygon fill="black" stroke="black" points="99.43,-41.08 89.01,-42.96 98.33,-48 99.43,-41.08"/>
</g>
<!-- Node3 -->
<g id="node3" class="node">
<title>Node3</title>
<g id="a_node3"><a xlink:href="a00016.html" target="_top" xlink:title=" ">
<polygon fill="white" stroke="black" points="239,-30 129,-30 129,0 239,0 239,-30"/>
<text text-anchor="start" x="137" y="-18" font-family="Helvetica,sans-Serif" font-size="10.00">Initialization and</text>
<text text-anchor="middle" x="184" y="-7" font-family="Helvetica,sans-Serif" font-size="10.00"> destroy functions.</text>
</a>
</g>
</g>
<!-- Node1&#45;&gt;Node3 -->
<g id="edge2" class="edge">
<title>Node1&#45;&gt;Node3</title>
<path fill="none" stroke="black" d="M98.97,-27.83C108.71,-26.35 118.89,-24.79 128.66,-23.3"/>
<polygon fill="black" stroke="black" points="98.36,-24.39 89.01,-29.36 99.42,-31.31 98.36,-24.39"/>
</g>
</g>
</svg>
