<?xml version="1.0" encoding="UTF-8" standalone="no"?>
<!DOCTYPE svg PUBLIC "-//W3C//DTD SVG 1.1//EN"
 "http://www.w3.org/Graphics/SVG/1.1/DTD/svg11.dtd">
<!-- Generated by graphviz version 2.43.0 (0)
 -->
<!-- Title: Internal functions. Pages: 1 -->
<svg width="271pt" height="76pt"
 viewBox="0.00 0.00 271.00 75.50" xmlns="http://www.w3.org/2000/svg" xmlns:xlink="http://www.w3.org/1999/xlink">
<g id="graph0" class="graph" transform="scale(1 1) rotate(0) translate(4 71.5)">
<title>Internal functions.</title>
<polygon fill="white" stroke="transparent" points="-4,4 -4,-71.5 267,-71.5 267,4 -4,4"/>
<!-- Node2 -->
<g id="node1" class="node">
<title>Node2</title>
<g id="a_node1"><a xlink:href="a00013.html" target="_top" xlink:title=" ">
<polygon fill="white" stroke="black" points="263,-67.5 145,-67.5 145,-48.5 263,-48.5 263,-67.5"/>
<text text-anchor="middle" x="204" y="-55.5" font-family="Helvetica,sans-Serif" font-size="10.00">Allocation functions.</text>
</a>
</g>
</g>
<!-- Node1 -->
<g id="node2" class="node">
<title>Node1</title>
<g id="a_node2"><a xlink:title=" ">
<polygon fill="#bfbfbf" stroke="black" points="109,-45.5 0,-45.5 0,-26.5 109,-26.5 109,-45.5"/>
<text text-anchor="middle" x="54.5" y="-33.5" font-family="Helvetica,sans-Serif" font-size="10.00">Internal functions.</text>
</a>
</g>
</g>
<!-- Node1&#45;&gt;Node2 -->
<g id="edge1" class="edge">
<title>Node1&#45;&gt;Node2</title>
<path fill="none" stroke="black" d="M119.11,-45.49C127.68,-46.77 136.43,-48.07 144.89,-49.33"/>
<polygon fill="black" stroke="black" points="119.58,-42.02 109.17,-44 118.54,-48.94 119.58,-42.02"/>
</g>
<!-- Node3 -->
<g id="node3" class="node">
<title>Node3</title>
<g id="a_node3"><a xlink:href="a00014.html" target="_top" xlink:title=" ">
<polygon fill="white" stroke="black" points="259,-30 149,-30 149,0 259,0 259,-30"/>
<text text-anchor="start" x="157" y="-18" font-family="Helvetica,sans-Serif" font-size="10.00">Initialization and</text>
<text text-anchor="middle" x="204" y="-7" font-family="Helvetica,sans-Serif" font-size="10.00"> destroy functions.</text>
</a>
</g>
</g>
<!-- Node1&#45;&gt;Node3 -->
<g id="edge2" class="edge">
<title>Node1&#45;&gt;Node3</title>
<path fill="none" stroke="black" d="M119.25,-26.92C129.04,-25.53 139.07,-24.1 148.63,-22.74"/>
<polygon fill="black" stroke="black" points="118.57,-23.48 109.17,-28.36 119.56,-30.41 118.57,-23.48"/>
</g>
</g>
</svg>
