<?xml version="1.0" encoding="UTF-8" standalone="no"?>
<!DOCTYPE svg PUBLIC "-//W3C//DTD SVG 1.1//EN"
 "http://www.w3.org/Graphics/SVG/1.1/DTD/svg11.dtd">
<!-- Generated by graphviz version 2.43.0 (0)
 -->
<!-- Title: src/core_arena.h Pages: 1 -->
<svg width="506pt" height="84pt"
 viewBox="0.00 0.00 506.00 84.00" xmlns="http://www.w3.org/2000/svg" xmlns:xlink="http://www.w3.org/1999/xlink">
<g id="graph0" class="graph" transform="scale(1 1) rotate(0) translate(4 80)">
<title>src/core_arena.h</title>
<polygon fill="white" stroke="transparent" points="-4,4 -4,-80 502,-80 502,4 -4,4"/>
<!-- Node1 -->
<g id="node1" class="node">
<title>Node1</title>
<g id="a_node1"><a xlink:title="A general purpose arena strategy that is based on malloc &#45; header file.">
<polygon fill="#bfbfbf" stroke="black" points="195.5,-56.5 195.5,-75.5 297.5,-75.5 297.5,-56.5 195.5,-56.5"/>
<text text-anchor="middle" x="246.5" y="-63.5" font-family="Helvetica,sans-Serif" font-size="10.00">src/core_arena.h</text>
</a>
</g>
</g>
<!-- Node2 -->
<g id="node2" class="node">
<title>Node2</title>
<g id="a_node2"><a xlink:title=" ">
<polygon fill="white" stroke="#bfbfbf" points="0,-0.5 0,-19.5 53,-19.5 53,-0.5 0,-0.5"/>
<text text-anchor="middle" x="26.5" y="-7.5" font-family="Helvetica,sans-Serif" font-size="10.00">stdlib.h</text>
</a>
</g>
</g>
<!-- Node1&#45;&gt;Node2 -->
<g id="edge1" class="edge">
<title>Node1&#45;&gt;Node2</title>
<path fill="none" stroke="midnightblue" d="M210.65,-56.43C175.4,-47.96 119.79,-34.53 63.09,-20.38"/>
<polygon fill="midnightblue" stroke="midnightblue" points="63.79,-16.95 53.24,-17.92 62.1,-23.74 63.79,-16.95"/>
</g>
<!-- Node3 -->
<g id="node3" class="node">
<title>Node3</title>
<g id="a_node3"><a xlink:title=" ">
<polygon fill="white" stroke="#bfbfbf" points="71,-0.5 71,-19.5 128,-19.5 128,-0.5 71,-0.5"/>
<text text-anchor="middle" x="99.5" y="-7.5" font-family="Helvetica,sans-Serif" font-size="10.00">stddef.h</text>
</a>
</g>
</g>
<!-- Node1&#45;&gt;Node3 -->
<g id="edge2" class="edge">
<title>Node1&#45;&gt;Node3</title>
<path fill="none" stroke="midnightblue" d="M223.21,-56.44C198.69,-47.44 159.9,-33.19 132.3,-23.05"/>
<polygon fill="midnightblue" stroke="midnightblue" points="133.28,-19.68 122.68,-19.52 130.86,-26.25 133.28,-19.68"/>
</g>
<!-- Node4 -->
<g id="node4" class="node">
<title>Node4</title>
<g id="a_node4"><a xlink:title=" ">
<polygon fill="white" stroke="#bfbfbf" points="146.5,-0.5 146.5,-19.5 200.5,-19.5 200.5,-0.5 146.5,-0.5"/>
<text text-anchor="middle" x="173.5" y="-7.5" font-family="Helvetica,sans-Serif" font-size="10.00">stdint.h</text>
</a>
</g>
</g>
<!-- Node1&#45;&gt;Node4 -->
<g id="edge3" class="edge">
<title>Node1&#45;&gt;Node4</title>
<path fill="none" stroke="midnightblue" d="M234.77,-56.32C223.66,-48.11 206.76,-35.6 193.52,-25.81"/>
<polygon fill="midnightblue" stroke="midnightblue" points="195.56,-22.97 185.44,-19.83 191.4,-28.59 195.56,-22.97"/>
</g>
<!-- Node5 -->
<g id="node5" class="node">
<title>Node5</title>
<g id="a_node5"><a xlink:title=" ">
<polygon fill="white" stroke="#bfbfbf" points="219,-0.5 219,-19.5 274,-19.5 274,-0.5 219,-0.5"/>
<text text-anchor="middle" x="246.5" y="-7.5" font-family="Helvetica,sans-Serif" font-size="10.00">string.h</text>
</a>
</g>
</g>
<!-- Node1&#45;&gt;Node5 -->
<g id="edge4" class="edge">
<title>Node1&#45;&gt;Node5</title>
<path fill="none" stroke="midnightblue" d="M246.5,-56.08C246.5,-49.01 246.5,-38.86 246.5,-29.99"/>
<polygon fill="midnightblue" stroke="midnightblue" points="250,-29.75 246.5,-19.75 243,-29.75 250,-29.75"/>
</g>
<!-- Node6 -->
<g id="node6" class="node">
<title>Node6</title>
<g id="a_node6"><a xlink:title=" ">
<polygon fill="white" stroke="#bfbfbf" points="292.5,-0.5 292.5,-19.5 342.5,-19.5 342.5,-0.5 292.5,-0.5"/>
<text text-anchor="middle" x="317.5" y="-7.5" font-family="Helvetica,sans-Serif" font-size="10.00">stdio.h</text>
</a>
</g>
</g>
<!-- Node1&#45;&gt;Node6 -->
<g id="edge5" class="edge">
<title>Node1&#45;&gt;Node6</title>
<path fill="none" stroke="midnightblue" d="M257.91,-56.32C268.61,-48.18 284.84,-35.84 297.66,-26.09"/>
<polygon fill="midnightblue" stroke="midnightblue" points="300.04,-28.67 305.89,-19.83 295.81,-23.1 300.04,-28.67"/>
</g>
<!-- Node7 -->
<g id="node7" class="node">
<title>Node7</title>
<g id="a_node7"><a xlink:title=" ">
<polygon fill="white" stroke="#bfbfbf" points="360.5,-0.5 360.5,-19.5 422.5,-19.5 422.5,-0.5 360.5,-0.5"/>
<text text-anchor="middle" x="391.5" y="-7.5" font-family="Helvetica,sans-Serif" font-size="10.00">stdbool.h</text>
</a>
</g>
</g>
<!-- Node1&#45;&gt;Node7 -->
<g id="edge6" class="edge">
<title>Node1&#45;&gt;Node7</title>
<path fill="none" stroke="midnightblue" d="M269.48,-56.44C293.66,-47.44 331.92,-33.19 359.15,-23.05"/>
<polygon fill="midnightblue" stroke="midnightblue" points="360.48,-26.29 368.63,-19.52 358.04,-19.73 360.48,-26.29"/>
</g>
<!-- Node8 -->
<g id="node8" class="node">
<title>Node8</title>
<g id="a_node8"><a xlink:title=" ">
<polygon fill="white" stroke="#bfbfbf" points="441,-0.5 441,-19.5 498,-19.5 498,-0.5 441,-0.5"/>
<text text-anchor="middle" x="469.5" y="-7.5" font-family="Helvetica,sans-Serif" font-size="10.00">assert.h</text>
</a>
</g>
</g>
<!-- Node1&#45;&gt;Node8 -->
<g id="edge7" class="edge">
<title>Node1&#45;&gt;Node8</title>
<path fill="none" stroke="midnightblue" d="M281.84,-56.44C322.45,-46.61 388.9,-30.52 430.86,-20.36"/>
<polygon fill="midnightblue" stroke="midnightblue" points="431.82,-23.73 440.71,-17.97 430.17,-16.92 431.82,-23.73"/>
</g>
</g>
</svg>
