<?xml version="1.0" encoding="UTF-8" standalone="no"?>
<!DOCTYPE svg PUBLIC "-//W3C//DTD SVG 1.1//EN"
 "http://www.w3.org/Graphics/SVG/1.1/DTD/svg11.dtd">
<!-- Generated by graphviz version 2.43.0 (0)
 -->
<!-- Title: src/core_arena.c Pages: 1 -->
<svg width="901pt" height="140pt"
 viewBox="0.00 0.00 901.00 140.00" xmlns="http://www.w3.org/2000/svg" xmlns:xlink="http://www.w3.org/1999/xlink">
<g id="graph0" class="graph" transform="scale(1 1) rotate(0) translate(4 136)">
<title>src/core_arena.c</title>
<polygon fill="white" stroke="transparent" points="-4,4 -4,-136 897,-136 897,4 -4,4"/>
<!-- Node1 -->
<g id="node1" class="node">
<title>Node1</title>
<g id="a_node1"><a xlink:title="A general purpose arena allocation strategy that is based on malloc.">
<polygon fill="#bfbfbf" stroke="black" points="375.5,-112.5 375.5,-131.5 476.5,-131.5 476.5,-112.5 375.5,-112.5"/>
<text text-anchor="middle" x="426" y="-119.5" font-family="Helvetica,sans-Serif" font-size="10.00">src/core_arena.c</text>
</a>
</g>
</g>
<!-- Node2 -->
<g id="node2" class="node">
<title>Node2</title>
<g id="a_node2"><a xlink:href="a00005.html" target="_top" xlink:title="A general purpose arena strategy that is based on malloc &#45; header file.">
<polygon fill="white" stroke="black" points="384.5,-56.5 384.5,-75.5 467.5,-75.5 467.5,-56.5 384.5,-56.5"/>
<text text-anchor="middle" x="426" y="-63.5" font-family="Helvetica,sans-Serif" font-size="10.00">core_arena.h</text>
</a>
</g>
</g>
<!-- Node1&#45;&gt;Node2 -->
<g id="edge1" class="edge">
<title>Node1&#45;&gt;Node2</title>
<path fill="none" stroke="midnightblue" d="M426,-112.08C426,-105.01 426,-94.86 426,-85.99"/>
<polygon fill="midnightblue" stroke="midnightblue" points="429.5,-85.75 426,-75.75 422.5,-85.75 429.5,-85.75"/>
</g>
<!-- Node3 -->
<g id="node3" class="node">
<title>Node3</title>
<g id="a_node3"><a xlink:title=" ">
<polygon fill="white" stroke="#bfbfbf" points="0,-0.5 0,-19.5 54,-19.5 54,-0.5 0,-0.5"/>
<text text-anchor="middle" x="27" y="-7.5" font-family="Helvetica,sans-Serif" font-size="10.00">limits.h</text>
</a>
</g>
</g>
<!-- Node2&#45;&gt;Node3 -->
<g id="edge2" class="edge">
<title>Node2&#45;&gt;Node3</title>
<path fill="none" stroke="midnightblue" d="M384.37,-61.5C318.42,-55.59 185.73,-42.24 63.92,-19.97"/>
<polygon fill="midnightblue" stroke="midnightblue" points="64.52,-16.52 54.05,-18.14 63.24,-23.4 64.52,-16.52"/>
</g>
<!-- Node4 -->
<g id="node4" class="node">
<title>Node4</title>
<g id="a_node4"><a xlink:title=" ">
<polygon fill="white" stroke="#bfbfbf" points="72.5,-0.5 72.5,-19.5 125.5,-19.5 125.5,-0.5 72.5,-0.5"/>
<text text-anchor="middle" x="99" y="-7.5" font-family="Helvetica,sans-Serif" font-size="10.00">stdlib.h</text>
</a>
</g>
</g>
<!-- Node2&#45;&gt;Node4 -->
<g id="edge3" class="edge">
<title>Node2&#45;&gt;Node4</title>
<path fill="none" stroke="midnightblue" d="M384.35,-59.78C329.6,-52.65 230.28,-38.79 135.7,-19.97"/>
<polygon fill="midnightblue" stroke="midnightblue" points="136.17,-16.5 125.67,-17.96 134.79,-23.36 136.17,-16.5"/>
</g>
<!-- Node5 -->
<g id="node5" class="node">
<title>Node5</title>
<g id="a_node5"><a xlink:title=" ">
<polygon fill="white" stroke="#bfbfbf" points="144,-0.5 144,-19.5 200,-19.5 200,-0.5 144,-0.5"/>
<text text-anchor="middle" x="172" y="-7.5" font-family="Helvetica,sans-Serif" font-size="10.00">stddef.h</text>
</a>
</g>
</g>
<!-- Node2&#45;&gt;Node5 -->
<g id="edge4" class="edge">
<title>Node2&#45;&gt;Node5</title>
<path fill="none" stroke="midnightblue" d="M384.31,-56.79C342.6,-48.49 276.38,-35.03 210.04,-20.18"/>
<polygon fill="midnightblue" stroke="midnightblue" points="210.78,-16.76 200.26,-17.98 209.25,-23.59 210.78,-16.76"/>
</g>
<!-- Node6 -->
<g id="node6" class="node">
<title>Node6</title>
<g id="a_node6"><a xlink:title=" ">
<polygon fill="white" stroke="#bfbfbf" points="218,-0.5 218,-19.5 272,-19.5 272,-0.5 218,-0.5"/>
<text text-anchor="middle" x="245" y="-7.5" font-family="Helvetica,sans-Serif" font-size="10.00">stdint.h</text>
</a>
</g>
</g>
<!-- Node2&#45;&gt;Node6 -->
<g id="edge5" class="edge">
<title>Node2&#45;&gt;Node6</title>
<path fill="none" stroke="midnightblue" d="M397.32,-56.44C366.02,-47.11 315.82,-32.13 281.68,-21.94"/>
<polygon fill="midnightblue" stroke="midnightblue" points="282.65,-18.58 272.07,-19.08 280.65,-25.29 282.65,-18.58"/>
</g>
<!-- Node7 -->
<g id="node7" class="node">
<title>Node7</title>
<g id="a_node7"><a xlink:title=" ">
<polygon fill="white" stroke="#bfbfbf" points="290.5,-0.5 290.5,-19.5 345.5,-19.5 345.5,-0.5 290.5,-0.5"/>
<text text-anchor="middle" x="318" y="-7.5" font-family="Helvetica,sans-Serif" font-size="10.00">string.h</text>
</a>
</g>
</g>
<!-- Node2&#45;&gt;Node7 -->
<g id="edge6" class="edge">
<title>Node2&#45;&gt;Node7</title>
<path fill="none" stroke="midnightblue" d="M408.65,-56.32C391.33,-47.66 364.48,-34.24 344.5,-24.25"/>
<polygon fill="midnightblue" stroke="midnightblue" points="345.82,-21 335.31,-19.65 342.69,-27.26 345.82,-21"/>
</g>
<!-- Node8 -->
<g id="node8" class="node">
<title>Node8</title>
<g id="a_node8"><a xlink:title=" ">
<polygon fill="white" stroke="#bfbfbf" points="364,-0.5 364,-19.5 414,-19.5 414,-0.5 364,-0.5"/>
<text text-anchor="middle" x="389" y="-7.5" font-family="Helvetica,sans-Serif" font-size="10.00">stdio.h</text>
</a>
</g>
</g>
<!-- Node2&#45;&gt;Node8 -->
<g id="edge7" class="edge">
<title>Node2&#45;&gt;Node8</title>
<path fill="none" stroke="midnightblue" d="M419.89,-56.08C414.72,-48.53 407.15,-37.49 400.81,-28.23"/>
<polygon fill="midnightblue" stroke="midnightblue" points="403.54,-26.02 395,-19.75 397.76,-29.98 403.54,-26.02"/>
</g>
<!-- Node9 -->
<g id="node9" class="node">
<title>Node9</title>
<g id="a_node9"><a xlink:title=" ">
<polygon fill="white" stroke="#bfbfbf" points="432,-0.5 432,-19.5 494,-19.5 494,-0.5 432,-0.5"/>
<text text-anchor="middle" x="463" y="-7.5" font-family="Helvetica,sans-Serif" font-size="10.00">stdbool.h</text>
</a>
</g>
</g>
<!-- Node2&#45;&gt;Node9 -->
<g id="edge8" class="edge">
<title>Node2&#45;&gt;Node9</title>
<path fill="none" stroke="midnightblue" d="M432.11,-56.08C437.28,-48.53 444.85,-37.49 451.19,-28.23"/>
<polygon fill="midnightblue" stroke="midnightblue" points="454.24,-29.98 457,-19.75 448.46,-26.02 454.24,-29.98"/>
</g>
<!-- Node10 -->
<g id="node10" class="node">
<title>Node10</title>
<g id="a_node10"><a xlink:title=" ">
<polygon fill="white" stroke="#bfbfbf" points="512.5,-0.5 512.5,-19.5 569.5,-19.5 569.5,-0.5 512.5,-0.5"/>
<text text-anchor="middle" x="541" y="-7.5" font-family="Helvetica,sans-Serif" font-size="10.00">assert.h</text>
</a>
</g>
</g>
<!-- Node2&#45;&gt;Node10 -->
<g id="edge9" class="edge">
<title>Node2&#45;&gt;Node10</title>
<path fill="none" stroke="midnightblue" d="M444.22,-56.44C462.9,-47.68 492.16,-33.94 513.62,-23.86"/>
<polygon fill="midnightblue" stroke="midnightblue" points="515.3,-26.93 522.86,-19.52 512.32,-20.6 515.3,-26.93"/>
</g>
<!-- Node11 -->
<g id="node11" class="node">
<title>Node11</title>
<g id="a_node11"><a xlink:title=" ">
<polygon fill="white" stroke="#bfbfbf" points="587.5,-0.5 587.5,-19.5 640.5,-19.5 640.5,-0.5 587.5,-0.5"/>
<text text-anchor="middle" x="614" y="-7.5" font-family="Helvetica,sans-Serif" font-size="10.00">errno.h</text>
</a>
</g>
</g>
<!-- Node2&#45;&gt;Node11 -->
<g id="edge10" class="edge">
<title>Node2&#45;&gt;Node11</title>
<path fill="none" stroke="midnightblue" d="M455.79,-56.44C488.77,-46.97 541.96,-31.69 577.44,-21.5"/>
<polygon fill="midnightblue" stroke="midnightblue" points="578.74,-24.77 587.39,-18.64 576.81,-18.04 578.74,-24.77"/>
</g>
<!-- Node12 -->
<g id="node12" class="node">
<title>Node12</title>
<g id="a_node12"><a xlink:title=" ">
<polygon fill="white" stroke="#bfbfbf" points="659,-0.5 659,-19.5 717,-19.5 717,-0.5 659,-0.5"/>
<text text-anchor="middle" x="688" y="-7.5" font-family="Helvetica,sans-Serif" font-size="10.00">stdarg.h</text>
</a>
</g>
</g>
<!-- Node2&#45;&gt;Node12 -->
<g id="edge11" class="edge">
<title>Node2&#45;&gt;Node12</title>
<path fill="none" stroke="midnightblue" d="M467.79,-57.05C510.73,-48.78 579.79,-35.21 648.8,-20.21"/>
<polygon fill="midnightblue" stroke="midnightblue" points="649.95,-23.54 658.98,-17.98 648.46,-16.7 649.95,-23.54"/>
</g>
<!-- Node13 -->
<g id="node13" class="node">
<title>Node13</title>
<g id="a_node13"><a xlink:title=" ">
<polygon fill="white" stroke="#bfbfbf" points="735.5,-0.5 735.5,-19.5 818.5,-19.5 818.5,-0.5 735.5,-0.5"/>
<text text-anchor="middle" x="777" y="-7.5" font-family="Helvetica,sans-Serif" font-size="10.00">sys/sysinfo.h</text>
</a>
</g>
</g>
<!-- Node2&#45;&gt;Node13 -->
<g id="edge12" class="edge">
<title>Node2&#45;&gt;Node13</title>
<path fill="none" stroke="midnightblue" d="M467.79,-59.08C523.88,-51.05 626.87,-36.05 725.16,-20.1"/>
<polygon fill="midnightblue" stroke="midnightblue" points="725.96,-23.52 735.27,-18.46 724.83,-16.61 725.96,-23.52"/>
</g>
<!-- Node14 -->
<g id="node14" class="node">
<title>Node14</title>
<g id="a_node14"><a xlink:title=" ">
<polygon fill="white" stroke="#bfbfbf" points="837,-0.5 837,-19.5 893,-19.5 893,-0.5 837,-0.5"/>
<text text-anchor="middle" x="865" y="-7.5" font-family="Helvetica,sans-Serif" font-size="10.00">unistd.h</text>
</a>
</g>
</g>
<!-- Node2&#45;&gt;Node14 -->
<g id="edge13" class="edge">
<title>Node2&#45;&gt;Node14</title>
<path fill="none" stroke="midnightblue" d="M467.63,-62.09C539.1,-56.73 689.87,-43.74 826.56,-20.05"/>
<polygon fill="midnightblue" stroke="midnightblue" points="827.55,-23.43 836.8,-18.25 826.34,-16.54 827.55,-23.43"/>
</g>
</g>
</svg>
