<?xml version="1.0" encoding="UTF-8" standalone="no"?>
<!DOCTYPE svg PUBLIC "-//W3C//DTD SVG 1.1//EN"
 "http://www.w3.org/Graphics/SVG/1.1/DTD/svg11.dtd">
<!-- Generated by graphviz version 2.43.0 (0)
 -->
<!-- Title: Graph Legend Pages: 1 -->
<svg width="550pt" height="159pt"
 viewBox="0.00 0.00 549.50 159.00" xmlns="http://www.w3.org/2000/svg" xmlns:xlink="http://www.w3.org/1999/xlink">
<g id="graph0" class="graph" transform="scale(1 1) rotate(0) translate(4 155)">
<title>Graph Legend</title>
<polygon fill="white" stroke="transparent" points="-4,4 -4,-155 545.5,-155 545.5,4 -4,4"/>
<!-- Node9 -->
<g id="node1" class="node">
<title>Node9</title>
<polygon fill="#bfbfbf" stroke="black" points="314,-19 252,-19 252,0 314,0 314,-19"/>
<text text-anchor="middle" x="283" y="-7" font-family="Helvetica,sans-Serif" font-size="10.00">Inherited</text>
</g>
<!-- Node10 -->
<g id="node2" class="node">
<title>Node10</title>
<polygon fill="none" stroke="black" points="70,-85 0,-85 0,-66 70,-66 70,-85"/>
<text text-anchor="middle" x="35" y="-73" font-family="Helvetica,sans-Serif" font-size="10.00">PublicBase</text>
</g>
<!-- Node10&#45;&gt;Node9 -->
<g id="edge1" class="edge">
<title>Node10&#45;&gt;Node9</title>
<path fill="none" stroke="midnightblue" d="M77.99,-63.41C127.62,-50.6 208.05,-29.84 251.96,-18.51"/>
<polygon fill="midnightblue" stroke="midnightblue" points="77,-60.05 68.19,-65.94 78.75,-66.83 77,-60.05"/>
</g>
<!-- Node11 -->
<g id="node3" class="node">
<title>Node11</title>
<polygon fill="none" stroke="red" points="68,-151 2,-151 2,-132 68,-132 68,-151"/>
<text text-anchor="middle" x="35" y="-139" font-family="Helvetica,sans-Serif" font-size="10.00">Truncated</text>
</g>
<!-- Node11&#45;&gt;Node10 -->
<g id="edge2" class="edge">
<title>Node11&#45;&gt;Node10</title>
<path fill="none" stroke="midnightblue" d="M35,-121.58C35,-109.63 35,-94.72 35,-85.41"/>
<polygon fill="midnightblue" stroke="midnightblue" points="31.5,-121.87 35,-131.87 38.5,-121.87 31.5,-121.87"/>
</g>
<!-- Node13 -->
<g id="node4" class="node">
<title>Node13</title>
<polygon fill="none" stroke="black" points="176,-85 88,-85 88,-66 176,-66 176,-85"/>
<text text-anchor="middle" x="132" y="-73" font-family="Helvetica,sans-Serif" font-size="10.00">ProtectedBase</text>
</g>
<!-- Node13&#45;&gt;Node9 -->
<g id="edge3" class="edge">
<title>Node13&#45;&gt;Node9</title>
<path fill="none" stroke="darkgreen" d="M161.83,-61.86C191.58,-49.25 236.51,-30.21 262.48,-19.2"/>
<polygon fill="darkgreen" stroke="darkgreen" points="160.21,-58.74 152.36,-65.87 162.94,-65.19 160.21,-58.74"/>
</g>
<!-- Node14 -->
<g id="node5" class="node">
<title>Node14</title>
<polygon fill="none" stroke="black" points="270,-85 194,-85 194,-66 270,-66 270,-85"/>
<text text-anchor="middle" x="232" y="-73" font-family="Helvetica,sans-Serif" font-size="10.00">PrivateBase</text>
</g>
<!-- Node14&#45;&gt;Node9 -->
<g id="edge4" class="edge">
<title>Node14&#45;&gt;Node9</title>
<path fill="none" stroke="#8b1a1a" d="M245.33,-57.77C255.12,-45.49 268.02,-29.3 275.9,-19.41"/>
<polygon fill="#8b1a1a" stroke="#8b1a1a" points="242.37,-55.87 238.88,-65.87 247.85,-60.23 242.37,-55.87"/>
</g>
<!-- Node15 -->
<g id="node6" class="node">
<title>Node15</title>
<polygon fill="none" stroke="#bfbfbf" points="379.5,-85 288.5,-85 288.5,-66 379.5,-66 379.5,-85"/>
<text text-anchor="middle" x="334" y="-73" font-family="Helvetica,sans-Serif" font-size="10.00">Undocumented</text>
</g>
<!-- Node15&#45;&gt;Node9 -->
<g id="edge5" class="edge">
<title>Node15&#45;&gt;Node9</title>
<path fill="none" stroke="midnightblue" d="M320.67,-57.77C310.88,-45.49 297.98,-29.3 290.1,-19.41"/>
<polygon fill="midnightblue" stroke="midnightblue" points="318.15,-60.23 327.12,-65.87 323.63,-55.87 318.15,-60.23"/>
</g>
<!-- Node16 -->
<g id="node7" class="node">
<title>Node16</title>
<polygon fill="none" stroke="black" points="482,-85 398,-85 398,-66 482,-66 482,-85"/>
<text text-anchor="middle" x="440" y="-73" font-family="Helvetica,sans-Serif" font-size="10.00">Templ&lt; int &gt;</text>
</g>
<!-- Node16&#45;&gt;Node9 -->
<g id="edge6" class="edge">
<title>Node16&#45;&gt;Node9</title>
<path fill="none" stroke="midnightblue" d="M409.36,-62.01C378.33,-49.36 331.16,-30.13 304.09,-19.1"/>
<polygon fill="midnightblue" stroke="midnightblue" points="408.24,-65.33 418.83,-65.87 410.89,-58.85 408.24,-65.33"/>
</g>
<!-- Node17 -->
<g id="node8" class="node">
<title>Node17</title>
<polygon fill="none" stroke="black" points="478.5,-151 401.5,-151 401.5,-132 478.5,-132 478.5,-151"/>
<text text-anchor="middle" x="440" y="-139" font-family="Helvetica,sans-Serif" font-size="10.00">Templ&lt; T &gt;</text>
</g>
<!-- Node17&#45;&gt;Node16 -->
<g id="edge7" class="edge">
<title>Node17&#45;&gt;Node16</title>
<path fill="none" stroke="orange" stroke-dasharray="5,2" d="M440,-121.58C440,-109.63 440,-94.72 440,-85.41"/>
<polygon fill="orange" stroke="orange" points="436.5,-121.87 440,-131.87 443.5,-121.87 436.5,-121.87"/>
<text text-anchor="middle" x="458.5" y="-106" font-family="Helvetica,sans-Serif" font-size="10.00">&lt; int &gt;</text>
</g>
<!-- Node18 -->
<g id="node9" class="node">
<title>Node18</title>
<polygon fill="none" stroke="black" points="541.5,-85 500.5,-85 500.5,-66 541.5,-66 541.5,-85"/>
<text text-anchor="middle" x="521" y="-73" font-family="Helvetica,sans-Serif" font-size="10.00">Used</text>
</g>
<!-- Node18&#45;&gt;Node9 -->
<g id="edge8" class="edge">
<title>Node18&#45;&gt;Node9</title>
<path fill="none" stroke="#9a32cd" stroke-dasharray="5,2" d="M490.64,-65.93C421.75,-47.02 352.91,-28.83 314.05,-18.63"/>
<polygon fill="#9a32cd" stroke="#9a32cd" points="489.78,-69.33 500.35,-68.61 491.64,-62.58 489.78,-69.33"/>
<text text-anchor="middle" x="455" y="-40" font-family="Helvetica,sans-Serif" font-size="10.00">m_usedClass</text>
</g>
</g>
</svg>
